<svg width="57" height="27" viewBox="0 0 57 27" fill="none" xmlns="http://www.w3.org/2000/svg">
<path d="M5.71875 0.792969L5.57812 1.0918C5.47266 1.30273 5.2793 1.56641 5.0332 1.86523C4.78711 2.16406 4.4707 2.46289 4.11914 2.7793C3.76758 3.0957 3.25781 3.39453 2.625 3.67578C1.97461 3.95703 1.27148 4.13281 0.498047 4.2207V7.64844H4.82227V26H10.2188V0.792969H5.71875ZM20.8535 13.3965C20.8535 10.7598 21.3809 8.7207 22.4531 7.2793C23.5078 5.83789 24.7734 5.11719 26.25 5.11719C27.709 5.11719 28.9746 5.83789 30.0469 7.2793C31.1016 8.7207 31.6465 10.7598 31.6465 13.3965C31.6465 16.0332 31.1016 18.0723 30.0469 19.5137C28.9746 20.9551 27.709 21.6758 26.25 21.6758C24.7734 21.6758 23.5078 20.9551 22.4531 19.5137C21.3809 18.0723 20.8535 16.0332 20.8535 13.3965ZM37.043 13.3965C37.043 9.45898 35.9883 6.29492 33.8965 3.88672C31.7871 1.47852 29.2383 0.265625 26.25 0.265625C23.2441 0.265625 20.6953 1.47852 18.6035 3.88672C16.4941 6.29492 15.457 9.45898 15.457 13.3965C15.457 17.334 16.4941 20.5156 18.6035 22.9238C20.6953 25.3496 23.2441 26.5449 26.25 26.5449C29.2383 26.5449 31.7871 25.3496 33.8965 22.9238C35.9883 20.5156 37.043 17.334 37.043 13.3965ZM50.543 23.8379V17.7207H56.6777V13.2207H50.543V7.10352H46.4121V13.2207H40.2949V17.7207H46.4121V23.8379H50.543Z" fill="url(#paint0_linear)"/>
<defs>
<linearGradient id="paint0_linear" x1="-0.539063" y1="3.76" x2="58.0698" y2="3.94587" gradientUnits="userSpaceOnUse">
<stop stop-color="#F0145A"/>
<stop offset="1" stop-color="#EF8080"/>
</linearGradient>
</defs>
</svg>
