<svg width="65" height="27" viewBox="0 0 65 27" fill="none" xmlns="http://www.w3.org/2000/svg">
<path d="M15.1758 12.6758L15.5273 12.5C15.791 12.3945 16.0898 12.2012 16.4414 11.9199C16.793 11.6387 17.127 11.3047 17.4785 10.9004C17.8301 10.5137 18.1289 9.98633 18.375 9.35352C18.6211 8.7207 18.7617 8.01758 18.7617 7.2793C18.7617 5.29297 17.9883 3.62305 16.4414 2.28711C14.8945 0.951172 12.8379 0.265625 10.3066 0.265625C9.19922 0.265625 8.14453 0.40625 7.14258 0.6875C6.12305 0.96875 5.31445 1.26758 4.7168 1.58398C4.10156 1.90039 3.52148 2.28711 2.99414 2.72656C2.4668 3.18359 2.13281 3.48242 1.99219 3.6582C1.85156 3.83398 1.74609 3.95703 1.67578 4.04492L4.91016 7.2793L5.45508 6.69922C5.80664 6.33008 6.36914 5.94336 7.17773 5.53906C7.98633 5.15234 8.84766 4.94141 9.76172 4.94141C10.8164 4.94141 11.6602 5.22266 12.2754 5.75C12.873 6.29492 13.1895 6.98047 13.1895 7.82422C13.1895 8.73828 12.873 9.47656 12.2578 10.0391C11.6426 10.6016 10.8164 10.8828 9.76172 10.8828H7.24805V15.3828H9.95508C11.2383 15.3828 12.2402 15.6992 12.9785 16.2969C13.7168 16.9121 14.0859 17.6855 14.0859 18.6172C14.0859 19.5664 13.6992 20.3398 12.9609 20.9375C12.2227 21.5527 11.1504 21.8516 9.76172 21.8516C9.05859 21.8516 8.39062 21.7637 7.74023 21.5703C7.08984 21.3945 6.5625 21.1836 6.14062 20.9375C5.71875 20.6914 5.33203 20.4277 4.96289 20.1113C4.57617 19.7949 4.34766 19.584 4.24219 19.4609C4.13672 19.3379 4.04883 19.2324 4.01367 19.1621L0.761719 22.5723L1.13086 22.9766C1.35938 23.2754 1.74609 23.6094 2.27344 23.9961C2.80078 24.3828 3.43359 24.752 4.13672 25.1387C4.83984 25.5254 5.73633 25.8594 6.84375 26.1406C7.95117 26.4219 9.11133 26.5449 10.3066 26.5449C13.1191 26.5449 15.3691 25.8066 17.0918 24.3125C18.8145 22.8359 19.6758 21.0605 19.6758 18.9863C19.6758 18.0723 19.5 17.2461 19.1836 16.4727C18.8496 15.6992 18.4805 15.1016 18.0938 14.6621C17.707 14.2402 17.25 13.8535 16.7402 13.5195C16.2129 13.1855 15.8613 12.9746 15.6504 12.8867C15.4395 12.7988 15.2812 12.7285 15.1758 12.6758ZM28.5 13.3965C28.5 10.7598 29.0273 8.7207 30.0996 7.2793C31.1543 5.83789 32.4199 5.11719 33.8965 5.11719C35.3555 5.11719 36.6211 5.83789 37.6934 7.2793C38.748 8.7207 39.293 10.7598 39.293 13.3965C39.293 16.0332 38.748 18.0723 37.6934 19.5137C36.6211 20.9551 35.3555 21.6758 33.8965 21.6758C32.4199 21.6758 31.1543 20.9551 30.0996 19.5137C29.0273 18.0723 28.5 16.0332 28.5 13.3965ZM44.6895 13.3965C44.6895 9.45898 43.6348 6.29492 41.543 3.88672C39.4336 1.47852 36.8848 0.265625 33.8965 0.265625C30.8906 0.265625 28.3418 1.47852 26.25 3.88672C24.1406 6.29492 23.1035 9.45898 23.1035 13.3965C23.1035 17.334 24.1406 20.5156 26.25 22.9238C28.3418 25.3496 30.8906 26.5449 33.8965 26.5449C36.8848 26.5449 39.4336 25.3496 41.543 22.9238C43.6348 20.5156 44.6895 17.334 44.6895 13.3965ZM58.1895 23.8379V17.7207H64.3242V13.2207H58.1895V7.10352H54.0586V13.2207H47.9414V17.7207H54.0586V23.8379H58.1895Z" fill="url(#paint0_linear)"/>
<defs>
<linearGradient id="paint0_linear" x1="0.515625" y1="3.76" x2="66.0779" y2="3.99259" gradientUnits="userSpaceOnUse">
<stop stop-color="#F0145A"/>
<stop offset="1" stop-color="#EF8080"/>
</linearGradient>
</defs>
</svg>
