<svg width="90" height="27" viewBox="0 0 90 27" fill="none" xmlns="http://www.w3.org/2000/svg">
<path d="M10.5566 9.26562C8.86914 9.26562 7.55078 9.56445 6.60156 10.1621L6.9707 5.48633H17.3945V0.792969H2.10156L1.20508 15.207L4.98438 15.5586L5.37109 15.0488C5.63477 14.7324 6.10938 14.3984 6.79492 14.0645C7.46289 13.748 8.23633 13.5723 9.11523 13.5723C10.3633 13.5723 11.4004 13.9766 12.209 14.7676C13.0176 15.5762 13.4219 16.5605 13.4219 17.7207C13.4219 18.8984 13.0527 19.8477 12.2793 20.5859C11.5059 21.3242 10.4512 21.6758 9.09766 21.6758C8.04297 21.6758 7.02344 21.4473 6.00391 20.9727C5.00195 20.5156 4.35156 20.1465 4.05273 19.8652C3.75391 19.584 3.52539 19.3555 3.34961 19.1621L0.0976562 22.5723L0.466797 22.9766C0.677734 23.2754 1.04688 23.6094 1.55664 23.9961C2.08398 24.3828 2.68164 24.752 3.36719 25.1387C4.05273 25.5254 4.94922 25.8594 6.03906 26.1406C7.12891 26.4219 8.27148 26.5449 9.4668 26.5449C12.3145 26.5449 14.6172 25.7188 16.375 24.0488C18.1328 22.3789 19.0117 20.2695 19.0117 17.7207C19.0117 15.2949 18.2207 13.291 16.6035 11.6738C14.9863 10.0742 12.9824 9.26562 10.5566 9.26562ZM28.0293 13.3965C28.0293 10.7598 28.5566 8.7207 29.6289 7.2793C30.6836 5.83789 31.9492 5.11719 33.4258 5.11719C34.8848 5.11719 36.1504 5.83789 37.2227 7.2793C38.2773 8.7207 38.8223 10.7598 38.8223 13.3965C38.8223 16.0332 38.2773 18.0723 37.2227 19.5137C36.1504 20.9551 34.8848 21.6758 33.4258 21.6758C31.9492 21.6758 30.6836 20.9551 29.6289 19.5137C28.5566 18.0723 28.0293 16.0332 28.0293 13.3965ZM44.2188 13.3965C44.2188 9.45898 43.1641 6.29492 41.0723 3.88672C38.9629 1.47852 36.4141 0.265625 33.4258 0.265625C30.4199 0.265625 27.8711 1.47852 25.7793 3.88672C23.6699 6.29492 22.6328 9.45898 22.6328 13.3965C22.6328 17.334 23.6699 20.5156 25.7793 22.9238C27.8711 25.3496 30.4199 26.5449 33.4258 26.5449C36.4141 26.5449 38.9629 25.3496 41.0723 22.9238C43.1641 20.5156 44.2188 17.334 44.2188 13.3965ZM53.5879 13.3965C53.5879 10.7598 54.1152 8.7207 55.1875 7.2793C56.2422 5.83789 57.5078 5.11719 58.9844 5.11719C60.4434 5.11719 61.709 5.83789 62.7812 7.2793C63.8359 8.7207 64.3809 10.7598 64.3809 13.3965C64.3809 16.0332 63.8359 18.0723 62.7812 19.5137C61.709 20.9551 60.4434 21.6758 58.9844 21.6758C57.5078 21.6758 56.2422 20.9551 55.1875 19.5137C54.1152 18.0723 53.5879 16.0332 53.5879 13.3965ZM69.7773 13.3965C69.7773 9.45898 68.7227 6.29492 66.6309 3.88672C64.5215 1.47852 61.9727 0.265625 58.9844 0.265625C55.9785 0.265625 53.4297 1.47852 51.3379 3.88672C49.2285 6.29492 48.1914 9.45898 48.1914 13.3965C48.1914 17.334 49.2285 20.5156 51.3379 22.9238C53.4297 25.3496 55.9785 26.5449 58.9844 26.5449C61.9727 26.5449 64.5215 25.3496 66.6309 22.9238C68.7227 20.5156 69.7773 17.334 69.7773 13.3965ZM83.2773 23.8379V17.7207H89.4121V13.2207H83.2773V7.10352H79.1465V13.2207H73.0293V17.7207H79.1465V23.8379H83.2773Z" fill="url(#paint0_linear)"/>
<defs>
<linearGradient id="paint0_linear" x1="-1.27344" y1="3.76" x2="91.1086" y2="4.22181" gradientUnits="userSpaceOnUse">
<stop stop-color="#F0145A"/>
<stop offset="1" stop-color="#EF8080"/>
</linearGradient>
</defs>
</svg>
