<svg width="419" height="63" fill="none" xmlns="http://www.w3.org/2000/svg"><g clip-path="url(#clip0)"><path d="M10.35 58.1a3.9 3.9 0 00-1.13-2.83 3.67 3.67 0 00-2.74-1.16c-.97 0-1.8.3-2.51.93a3.83 3.83 0 00-1.3 2.23H1.63v-3H0v7.63h1.63v-3.1h1.04c.16.93.6 1.71 1.3 2.33.7.62 1.53.94 2.51.94 1.07 0 1.99-.38 2.74-1.16a3.88 3.88 0 001.13-2.82zm-1.63 0c0 .71-.22 1.31-.66 1.78a2.09 2.09 0 01-3.15 0 2.49 2.49 0 01-.66-1.79c0-.72.22-1.32.66-1.8a2.11 2.11 0 013.15 0c.44.48.66 1.08.66 1.8zM12.96 54.28v7.63h1.63V59.4h1.58c.79 0 1.44-.25 1.96-.74.5-.5.77-1.1.77-1.82 0-.73-.26-1.33-.77-1.83a2.73 2.73 0 00-1.96-.73h-3.21zm3.16 1.47c.33 0 .6.1.82.32.22.2.32.46.32.77 0 .3-.1.57-.32.77-.22.2-.5.32-.82.32h-1.53v-2.18h1.53zM28.26 61.9v-7.62h-1.41l-3.76 4.85v-4.85h-1.64v7.63h1.42l3.76-4.85v4.85h1.63zM30.32 60.43v3.06h1.64V61.9h4.58v1.58h1.63v-3.06h-.93v-6.15h-5.28v2.34a7.51 7.51 0 01-.41 2.53c-.11.26-.23.5-.38.73-.14.22-.22.36-.28.42l-.13.13h-.44zm3.27-3.8v-.88h2.02v4.68H32.4l.13-.13c.07-.08.17-.23.29-.43.12-.2.23-.45.35-.72a7.51 7.51 0 00.42-2.53zM47.31 61.9v-7.62H45.9l-3.76 4.85v-4.85H40.5v7.63h1.42l3.76-4.85v4.85h1.63zM51.88 54.28h-1.63v2.34c0 .92.24 1.62.72 2.13.49.5 1.15.76 2 .76.73 0 1.33-.14 1.8-.44v2.84h1.63v-7.63h-1.63v3.21l-.19.14a2.37 2.37 0 01-1.34.4c-.43 0-.77-.11-1.01-.35a1.5 1.5 0 01-.35-1.06v-2.34zM65.99 54.28h-1.64v3.05h-3.27v-3.05h-1.63v7.63h1.63V58.8h3.27v3.1H66v-7.62zM72.95 58.7H71.1l.93-2.52.92 2.51zm.55 1.4l.65 1.8h1.75l-3-7.62h-1.74l-3 7.63h1.74l.66-1.8h2.94zM83.02 54.28H81.4v7.63h1.63v-2.18l.98-1.1 2.24 3.28h1.9l-3.05-4.47 2.84-3.16h-1.91l-3 3.32v-3.32zM91.46 58.1c0-.7.24-1.3.72-1.78a2.3 2.3 0 011.73-.73c.69 0 1.27.23 1.74.73.47.47.71 1.07.71 1.77s-.24 1.3-.71 1.78a2.3 2.3 0 01-1.74.73 2.3 2.3 0 01-1.73-.73 2.4 2.4 0 01-.72-1.78zm-1.69 0a4.06 4.06 0 004.14 3.98 4.06 4.06 0 004.14-3.99 4.06 4.06 0 00-4.14-3.98 4.06 4.06 0 00-4.14 3.98zM104.75 57.6l-2.62-3.32h-1.47v7.63h1.64v-5.07l2.45 3.1 2.45-3.12v5.09h1.63v-7.63h-1.44l-2.64 3.32zM118.36 54.28h-6.48v7.63h1.63v-6.16h3.21v6.16h1.64v-7.63zM125.33 58.7h-1.85l.92-2.52.93 2.51zm.55 1.4l.65 1.8h1.74l-3-7.62h-1.74l-3 7.63h1.75l.65-1.8h2.94zM136.98 54.28h-1.63v3.05h-3.27v-3.05h-1.64v7.63h1.64V58.8h3.27v3.1h1.63v-7.62zM141.66 54.28h-1.63v7.63h1.63v-7.63zM150.37 54.28H147c-.76 0-1.38.24-1.87.72a2.4 2.4 0 00-.74 1.78c0 .3.05.6.14.87.1.27.2.47.34.63.12.15.25.3.41.42.16.13.26.22.33.25l.14.07-1.63 2.89h1.74l1.47-2.67h1.42v2.67h1.63v-7.63zm-4.36 2.5a1.01 1.01 0 011.03-1.04h1.7v2.02h-1.7c-.28 0-.53-.1-.73-.28a.93.93 0 01-.3-.7z" fill="#46466E"/><path d="M4.98 1H0v35.98h4.98V23.63c0-2.26.56-4.04 1.69-5.3a5.86 5.86 0 014.56-1.9c1.64 0 3 .6 4.1 1.75A6.27 6.27 0 0117 22.63V37H22V22.63c0-3.32-.9-5.93-2.71-7.88a9.18 9.18 0 00-7.06-2.94 10.39 10.39 0 00-6.93 2.76c-.15.15-.27.25-.32.33V1z" fill="#F0145A"/><path d="M33.13 1H28v35.95h5.13V1zM63.42 26.42l.26-2.57c0-3.44-1.13-6.32-3.44-8.63a11.69 11.69 0 00-8.63-3.44c-3.44 0-6.42 1.24-8.88 3.7a12.06 12.06 0 00-3.7 8.88c0 3.6 1.28 6.68 3.8 9.25a12.24 12.24 0 009.04 3.85c1.33 0 2.57-.2 3.8-.57 1.23-.4 2.26-.82 2.98-1.23a16.91 16.91 0 003.54-2.77c.2-.26.36-.41.46-.57L59.31 29l-.77.97a9.06 9.06 0 01-2.62 1.9 8.6 8.6 0 01-4.05.98c-2 0-3.7-.62-5.14-1.9a7.4 7.4 0 01-2.56-4.52h19.25zm-11.8-10.27c1.9 0 3.43.56 4.72 1.64a7.29 7.29 0 012.3 4.26H44.38a8.27 8.27 0 012.57-4.26 6.92 6.92 0 014.67-1.64zM87.37 35.46c0 2.25-.67 4.1-2.05 5.54a6.81 6.81 0 01-5.14 2.1 9.7 9.7 0 01-6.42-2.51l-.92-.92c-.16-.16-.26-.31-.36-.41l-3.34 3.33.41.52c.26.36.72.82 1.34 1.33.61.46 1.33.98 2.15 1.5.83.45 1.85.86 3.14 1.22 1.28.36 2.62.57 4 .57a12 12 0 008.78-3.55 12 12 0 003.55-8.78V12.3h-5.14v2.56l-.87-.77a9.37 9.37 0 00-2.67-1.54 10.81 10.81 0 00-12.02 2.82 12.09 12.09 0 00-3.44 8.74c0 3.44 1.13 6.31 3.44 8.73a10.8 10.8 0 0014.28 1.59c.46-.36.82-.62.92-.72l.36-.36v2.1zM73.51 24.1c0-2.16.66-3.96 2.05-5.45a6.52 6.52 0 014.88-2.26c1.85 0 3.5.77 4.88 2.26a7.87 7.87 0 012.05 5.45c0 2.15-.72 3.95-2.05 5.44a6.52 6.52 0 01-4.88 2.26c-1.85 0-3.5-.77-4.88-2.26a7.65 7.65 0 01-2.05-5.44zM119.3 36.94V21.03a8.6 8.6 0 00-2.87-6.58c-1.9-1.8-4.36-2.67-7.4-2.67a12.8 12.8 0 00-6.21 1.6c-.66.4-1.33.87-1.95 1.43-.61.52-.97.88-1.18 1.08-.15.2-.3.36-.4.51l3.33 3.34.67-.87a6.27 6.27 0 012.2-1.64 7.5 7.5 0 013.55-.83c1.49 0 2.72.47 3.7 1.34.97.87 1.43 2 1.43 3.29l-8.98 1.54c-2.21.36-4 1.23-5.24 2.62A7.23 7.23 0 0098 30.27c0 1.9.82 3.54 2.46 4.98a9.07 9.07 0 006.27 2.2c.87 0 1.7-.1 2.51-.35.88-.2 1.55-.46 2.11-.72a7.67 7.67 0 001.54-.92c.46-.36.77-.62.98-.72.15-.16.25-.31.3-.36v2.56h5.14zm-11.8-4.1a5 5 0 01-3.19-.93c-.82-.61-1.18-1.33-1.18-2.15 0-.88.26-1.65.83-2.21a4.12 4.12 0 012.26-1.13l7.95-1.29v.52c0 2.3-.56 4.05-1.74 5.34-1.18 1.23-2.83 1.85-4.93 1.85zM130.64 1h-5.13v35.95h5.13V1zM153.99 15.12l-.3-.36c-.22-.2-.52-.46-.98-.82-.47-.36-.98-.67-1.55-1.03a11.17 11.17 0 00-5.13-1.13c-2.52 0-4.57.72-6.21 2.16-1.7 1.49-2.52 3.13-2.52 5.03 0 1.39.3 2.52.92 3.55.62.97 1.4 1.69 2.37 2.1.92.46 1.95.92 3.03 1.28 1.07.36 2.05.67 3.03.93.92.3 1.69.67 2.3 1.13.62.46.93 1.08.93 1.8 0 .92-.36 1.69-1.03 2.25-.66.52-1.7.83-3.08.83a7.8 7.8 0 01-3.34-.83 9.08 9.08 0 01-2.1-1.38c-.3-.36-.57-.67-.72-.87l-3.34 3.33.36.47c.26.3.62.66 1.13 1.07.57.47 1.18.88 1.85 1.29.72.4 1.64.77 2.72 1.08 1.08.3 2.26.46 3.44.46 2.72 0 4.98-.77 6.68-2.26a7.06 7.06 0 002.57-5.44 6.2 6.2 0 00-.93-3.5 5.6 5.6 0 00-2.36-2.15 17.9 17.9 0 00-3.03-1.29c-1.08-.36-2.05-.72-3.03-.92a6.94 6.94 0 01-2.31-1.13 2.17 2.17 0 01-.93-1.8c0-.67.31-1.28.98-1.8a3.98 3.98 0 012.62-.77c.82 0 1.64.21 2.41.57.82.36 1.39.67 1.65.92l.56.57 3.34-3.34zM186.51 31.88l3.62-3.8 6.46 8.92h3.04l-7.8-10.84 7.04-7.4h-3.25l-9.1 9.69v-9.69h-2.66V37h2.65v-5.12zm30.38-3.99c0 1.97-.67 3.64-1.97 5a6.28 6.28 0 01-4.7 2.01c-1.81 0-3.4-.66-4.7-2.04a6.98 6.98 0 01-1.94-4.99 6.9 6.9 0 011.95-4.97 6.3 6.3 0 014.7-2.04c1.81 0 3.39.68 4.69 2.04a6.96 6.96 0 011.97 4.99zm-15.96 0a9.2 9.2 0 002.7 6.75 9 9 0 006.61 2.75c2.58 0 4.77-.93 6.57-2.75a9.2 9.2 0 002.71-6.75 9.2 9.2 0 00-2.7-6.75 8.86 8.86 0 00-6.58-2.77c-2.6 0-4.78.93-6.6 2.77a9.2 9.2 0 00-2.71 6.75zm39.33-4.38V37h2.66V18.76h-2.1l-7.22 9.11-7.22-9.1h-2.07V37h2.65V23.51l6.64 8.37 6.66-8.37zm12.75 3.04c-1.72.3-3.04.91-3.95 1.84a4.95 4.95 0 00-1.37 3.67c0 1.4.6 2.62 1.85 3.7a6.8 6.8 0 004.6 1.61c.73 0 1.43-.1 2.12-.3a6.5 6.5 0 002.84-1.54c.37-.33.59-.55.7-.68.11-.13.19-.24.24-.32V37h2.66V25.4c0-1.98-.69-3.65-2.06-5a7.1 7.1 0 00-5.16-2.03c-.82 0-1.63.13-2.41.37-.78.24-1.41.52-1.9.82a12.52 12.52 0 00-2.24 1.87l-.3.37 1.7 1.71.58-.65a6 6 0 011.84-1.33 5.81 5.81 0 012.73-.67 4.5 4.5 0 013.28 1.26 4.45 4.45 0 011.28 3.28l-7.03 1.15zm1.13 8.35a4.38 4.38 0 01-2.8-.8c-.67-.53-1-1.22-1-2.04 0-1.7 1.15-2.78 3.43-3.22l6.27-1.15v1.15c0 1.8-.55 3.26-1.67 4.37a5.67 5.67 0 01-4.23 1.7zm27.72 2.1h2.68V18.76h-2.68v7.8h-10.44v-7.8h-2.66V37h2.66v-7.98h10.44V37zm25.66-2.47h-2.85V18.76h-12.53v5.33a21.6 21.6 0 01-1.13 6.8 14.89 14.89 0 01-1.78 3.27c-.15.19-.26.3-.33.37h-1.32v7.03h2.65V37h14.64v4.56h2.65v-7.03zm-12.72-13.3H302v13.3h-10.26l.76-1.06c.5-.7 1-1.93 1.5-3.67.53-1.72.77-3.64.77-5.71l.02-2.86zm20.89 5.32c-1.73.3-3.04.91-3.95 1.84a4.96 4.96 0 00-1.38 3.67c0 1.4.62 2.62 1.86 3.7a6.8 6.8 0 004.6 1.61c.72 0 1.43-.1 2.12-.3a6.49 6.49 0 002.83-1.54c.38-.33.6-.55.7-.68.12-.13.2-.24.25-.32V37h2.65V25.4c0-1.98-.68-3.65-2.06-5a7.1 7.1 0 00-5.15-2.03c-.82 0-1.64.13-2.42.37s-1.4.52-1.89.82a12.43 12.43 0 00-2.24 1.87l-.3.37 1.7 1.71.58-.65a6 6 0 011.84-1.33 5.8 5.8 0 012.73-.67 4.5 4.5 0 013.28 1.26 4.45 4.45 0 011.28 3.28l-7.03 1.15zm1.13 8.35a4.38 4.38 0 01-2.8-.8c-.67-.53-1-1.22-1-2.04 0-1.7 1.15-2.78 3.43-3.22l6.27-1.15v1.15c0 1.8-.56 3.26-1.67 4.37a5.68 5.68 0 01-4.23 1.7z" fill="#323264"/><path fill-rule="evenodd" clip-rule="evenodd" d="M359.26 27.15h-11.93l5.25-16 5.95.04-3.45 10.55H361l-1.75 5.4z" fill="url(#paint0_linear)"/><path fill-rule="evenodd" clip-rule="evenodd" d="M334.9 47.9H329l13.27-40.84A8.77 8.77 0 01350.6 1h10.56a9 9 0 017.49 3.62 8.9 8.9 0 011.15 8.15l-2.7 8.33a8.74 8.74 0 01-7.85 6.05s-.02 0 5.03-15.56a4.07 4.07 0 00-.42-3.68c-.7-.96-1.88-1.53-3.44-1.53h-9.06a4.1 4.1 0 00-3.9 2.84L334.9 47.9zM175.23 1h5.84l-15.22 46.84H160L175.23 1z" fill="#F0145A"/></g><defs><linearGradient id="paint0_linear" x1="347.33" y1="24.08" x2="360.6" y2="31.02" gradientUnits="userSpaceOnUse"><stop stop-color="#F0145A"/><stop offset="1" stop-color="#693264"/></linearGradient><clipPath id="clip0"><path fill="#fff" d="M0 0h419v63H0z"/></clipPath></defs></svg>